<svg xmlns="http://www.w3.org/2000/svg" viewBox="0 0 6.3499997 6.3499997" width="48" height="48">
  <path fill="currentColor" d="M 0.07103445,6.2961297 C 0.03715952,6.2824609 0.04064801,6.1259813 0.07763857,5.9998944 0.14600715,5.7668516 0.16859791,5.7415078 1.4822181,4.424151 L 2.7384381,3.1643574 1.8574848,2.2835598 0.9765314,1.4027623 0.86268161,1.4233069 C 0.55710916,1.4784483 0.25835556,1.3260648 0.11981177,1.0443956 0.06179606,0.92644552 0.05661321,0.90090403 0.05661321,0.73294781 c 0,-0.16117045 0.0063693,-0.19593081 0.05347984,-0.29186328 C 0.18133595,0.2960102 0.29861869,0.1819564 0.45079329,0.10976419 0.56102319,0.05747069 0.59507089,0.05061295 0.73921768,0.0516713 0.95277222,0.0532386 1.0848164,0.10335955 1.2162556,0.2327418 c 0.1318446,0.1297815 0.1995633,0.27389648 0.210772,0.44855385 0.00487,0.0758736 2.075e-4,0.16926393 -0.010354,0.20753407 L 1.3974558,0.9584118 2.2846037,1.8454062 3.1717514,2.7324005 4.0603248,1.8430911 4.948898,0.95378149 4.9286109,0.86725415 C 4.9005466,0.74755449 4.9217896,0.57359806 4.9800678,0.44588318 5.0699859,0.24883052 5.2411881,0.11300995 5.4666125,0.05989065 5.8309102,-0.0259529 6.2338018,0.24928518 6.2925881,0.62416119 6.3672779,1.100452 5.9777359,1.4895048 5.493414,1.4223321 L 5.3828514,1.4069981 4.4986644,2.2905361 3.6144774,3.174074 4.8844441,4.4482376 C 6.1052156,5.673044 6.1567743,5.7276534 6.2154336,5.857979 6.2832286,6.0086033 6.3220217,6.2204509 6.2922026,6.2772127 6.2759906,6.3080757 6.2588706,6.3111277 6.1646587,6.2999597 6.0081628,6.2814074 5.913986,6.2539234 5.8154879,6.1980592 5.7628064,6.1681805 5.2307268,5.6520654 4.45522,4.8786049 L 3.1814793,3.6082255 1.9074707,4.87773 C 0.95921784,5.8226302 0.60845347,6.160393 0.53565489,6.1986971 0.38828083,6.2762405 0.14709044,6.326819 0.07103445,6.2961297 Z M 0.42643108,6.096505 C 0.49758676,6.0630844 0.80410035,5.7681126 1.7965736,4.7779548 L 3.0750549,3.5024562 2.9701565,3.3962383 C 2.9124615,3.3378183 2.856158,3.2900213 2.845035,3.2900213 c -0.011121,0 -0.5878568,0.5689174 -1.2816316,1.264261 C 0.23433857,5.8863516 0.23276277,5.8881244 0.19378997,6.0950812 l -0.0122451,0.065028 0.0766126,-0.010274 c 0.042137,-0.00565 0.11786025,-0.029646 0.16827408,-0.053324 z M 6.1542495,6.0925421 C 6.1475643,6.0581753 6.1150945,5.9738111 6.0820945,5.9050699 6.0267475,5.7897787 5.841503,5.5992782 3.6934532,3.448654 2.4127006,2.1663665 1.3588629,1.1172221 1.3515918,1.1172221 c -0.00727,0 -0.06446,0.051239 -0.1270851,0.1138651 L 1.1106422,1.3449529 3.458258,3.6900199 c 2.1736625,2.1713024 2.356877,2.3494746 2.4725998,2.4045517 0.068741,0.032716 0.1498606,0.059706 0.1802653,0.059977 0.052107,4.63e-4 0.054583,-0.00309 0.043126,-0.062002 z M 4.376544,2.2004437 5.2355397,1.3416066 5.1192743,1.2271321 5.0030089,1.1126579 4.1404184,1.975089 3.2778279,2.8375202 3.3875508,2.9484 c 0.060348,0.060985 0.1142849,0.1108798 0.1198603,0.1108798 0.00558,0 0.396685,-0.3864766 0.8691329,-0.8588361 z M 0.97604497,1.2435256 C 1.0164076,1.2238581 1.0872076,1.1699904 1.1333784,1.1238196 1.4816318,0.77556603 1.2314863,0.18677028 0.73656057,0.18978455 0.51145429,0.19115553 0.33372527,0.30539876 0.23628998,0.51135568 0.10615412,0.78643459 0.2284523,1.1084087 0.51480618,1.2446033 c 0.0838539,0.039882 0.12201631,0.046302 0.24363988,0.040985 0.0900262,-0.00394 0.17178621,-0.01974 0.21759891,-0.042063 z M 5.8781366,1.2267195 C 6.2027838,1.0364636 6.2606807,0.5994478 5.9957375,0.33904752 5.887689,0.23285165 5.7751711,0.18821292 5.6135908,0.18744007 5.4483921,0.18664992 5.3343877,0.23311288 5.2194108,0.3480899 5.1052815,0.46221907 5.0582506,0.57695865 5.057839,0.74227012 5.0572893,0.96298619 5.167758,1.1352106 5.3784486,1.242114 5.4680306,1.287568 5.495958,1.292318 5.6345901,1.285696 5.7601347,1.279696 5.8071744,1.268307 5.8781366,1.2267195 Z"/>
</svg>