<svg xmlns="http://www.w3.org/2000/svg" viewBox="0 0 6.3499997 6.3499997" width="48" height="48">
  <path fill="currentColor" d="m 1.7286775,6.3100669 c -0.039256,-0.0221 -0.046916,-0.038189 -0.047148,-0.099033 -2.594e-4,-0.068153 0.067279,-0.186546 0.1857226,-0.3255685 l 0.084455,-0.099129 -0.02829,-0.047947 c -0.01556,-0.026372 -0.033175,-0.047948 -0.039145,-0.047948 -0.01461,0 -0.1324352,0.1378682 -0.1965713,0.2300083 -0.028488,0.040927 -0.064411,0.084934 -0.079826,0.09779 -0.037518,0.031291 -0.092753,0.03005 -0.1224372,-0.00275 -0.059958,-0.066254 0.013799,-0.2203976 0.1977843,-0.4133424 l 0.077742,-0.081528 -0.027609,-0.043605 -0.02761,-0.043605 -0.038626,0.027505 c -0.052885,0.037653 -0.1500293,0.1501287 -0.2250614,0.2605776 -0.034352,0.050566 -0.07332,0.097752 -0.086596,0.104857 -0.043981,0.02354 -0.091729,0.014772 -0.1152767,-0.021167 -0.050149,-0.076537 0.013932,-0.2059829 0.2004209,-0.4048561 l 0.117826,-0.1256501 -0.030753,-0.028891 c -0.016914,-0.01589 -0.037772,-0.028892 -0.046351,-0.028892 -0.027186,0 -0.2102364,0.1928087 -0.2735517,0.2881354 C 1.1414397,5.604903 1.103511,5.6260501 1.0474392,5.594428 0.9487582,5.538776 0.9993256,5.4071148 1.2018251,5.1924541 L 1.3321963,5.0542537 1.3004282,5.0277846 C 1.2829565,5.0132266 1.260671,5.0011128 1.2509056,5.0008652 1.2271002,5.0002617 1.066676,5.1626272 0.98797565,5.2669767 0.95316925,5.3131257 0.90853405,5.3614717 0.88878715,5.374411 0.85667645,5.39545 0.84915815,5.395848 0.81765895,5.378171 0.71646031,5.3213664 0.76218665,5.1950457 0.95879635,4.9882698 1.0792967,4.8615386 1.0854983,4.8522658 1.0591767,4.838179 1.0284237,4.8217205 1.0341133,4.8181279 0.86815805,4.9587896 c -0.111354,0.094382 -0.19903902,0.1498647 -0.23684842,0.1498647 -0.0377117,0 -0.10002806,-0.072294 -0.10002806,-0.1160423 0,-0.039653 0.0286077,-0.069756 0.12471678,-0.1312352 0.0400977,-0.02565 0.1294092,-0.1004079 0.1984701,-0.1661283 C 0.94903875,4.6052527 0.98893815,4.5562792 1.0161081,4.4968491 1.0460011,4.431462 1.1132689,4.3553553 1.4086804,4.0526927 1.6047542,3.8518061 1.7622384,3.6799621 1.758645,3.6708173 1.7550518,3.6616724 1.7080979,3.5993943 1.6543031,3.5324212 1.5126485,3.3560652 1.2955789,3.0412034 1.1978448,2.8703236 0.96739095,2.4673949 0.90046515,2.0768485 1.0061331,1.7515877 1.0215517,1.7041271 1.1030943,1.5313495 1.1873387,1.3676377 1.3470569,1.0572583 1.401121,0.92307554 1.4591302,0.6930716 1.4781661,0.61759637 1.5083918,0.53067288 1.5262994,0.49990823 1.6542105,0.28016053 2.0359351,0.12478105 2.6216507,0.05404974 2.873884,0.0235899 3.466146,0.02358732 3.7221722,0.05404498 4.265565,0.11868857 4.631048,0.26142849 4.7629126,0.46050779 c 0.023327,0.0352168 0.071086,0.15022416 0.1061331,0.25557199 0.044862,0.13485295 0.1150061,0.29410292 0.2370059,0.53808012 0.095307,0.1905964 0.18832,0.3925967 0.2066959,0.4488897 0.073607,0.2254892 0.078655,0.4527074 0.015693,0.7063902 C 5.2359365,2.7821457 5.0321268,3.1330291 4.6369951,3.5998496 L 4.4959381,3.7664987 4.7530614,3.9585979 C 5.0538947,4.1833532 5.2519478,4.3671874 5.3893746,4.5492278 5.5091738,4.707918 5.5993467,4.7997047 5.7140615,4.8797256 5.8127145,4.9485426 5.8349127,4.9894202 5.8083955,5.0534398 5.7658205,5.156226 5.6304799,5.1023238 5.4154163,4.8969252 l -0.088103,-0.084144 -0.033666,0.026477 -0.033666,0.026478 0.041853,0.036896 c 0.1478389,0.1303297 0.2760992,0.3128453 0.2760992,0.3928919 0,0.063831 -0.061799,0.1006967 -0.1269138,0.075711 -0.011489,-0.0044 -0.05585,-0.051593 -0.09858,-0.1048561 -0.093917,-0.1170627 -0.234297,-0.2659631 -0.2507449,-0.2659631 -0.00657,0 -0.030067,0.013407 -0.05223,0.029793 l -0.040296,0.029792 0.072707,0.075064 c 0.166084,0.171469 0.2660496,0.3157741 0.2660496,0.3840562 0,0.039758 -0.022595,0.060157 -0.07916,0.071471 -0.048885,0.00978 -0.073667,-0.012493 -0.263398,-0.2367148 C 4.9471843,5.2851183 4.890337,5.2253139 4.8790388,5.2209784 c -0.012038,-0.00462 -0.035299,0.00688 -0.056188,0.027763 l -0.035646,0.035646 0.068875,0.07111 c 0.2210973,0.2282731 0.3107973,0.407354 0.2317667,0.4627092 -0.035692,0.024999 -0.090019,0.026684 -0.1199337,0.00372 C 4.9561036,5.8128608 4.9094671,5.7536899 4.8642759,5.6904378 4.8190845,5.6271853 4.7514794,5.5455765 4.7140432,5.5090843 c -0.067366,-0.065668 -0.068422,-0.066117 -0.1026939,-0.04366 -0.019046,0.012479 -0.034628,0.032113 -0.034628,0.043632 0,0.011519 0.041097,0.066218 0.091327,0.1215549 0.1291814,0.1423162 0.1950869,0.2545436 0.1900099,0.3235594 -0.00327,0.044477 -0.010944,0.057345 -0.043435,0.07285 -0.060557,0.0289 -0.099563,0.0065 -0.1763029,-0.1012106 C 4.6007192,5.8730342 4.542886,5.7977356 4.5098009,5.7584821 l -0.060155,-0.07137 -0.031105,0.038871 c -0.017107,0.021379 -0.031135,0.044184 -0.031172,0.050676 -3.69e-5,0.00649 0.036032,0.050396 0.080154,0.097563 0.083746,0.089525 0.1619891,0.2105127 0.1889291,0.2921416 0.027147,0.082258 -0.016006,0.1464515 -0.098448,0.1464515 -0.037636,0 -0.079916,-0.048056 -0.1300609,-0.1478361 C 4.383973,6.0774869 4.2792934,5.9733742 4.1245231,5.8632021 3.8816016,5.6902801 3.7149324,5.4967792 3.4026484,5.0251135 3.3204949,4.901031 3.2465475,4.7883946 3.238321,4.7748105 3.2248201,4.7525169 3.2160572,4.7580165 3.1483254,4.8312914 3.1070545,4.8759401 2.9716691,5.0464167 2.847469,5.2101285 2.5722455,5.5729086 2.4054923,5.74646 2.2089888,5.8746381 2.0353336,5.9879124 1.9587962,6.0638841 1.8938819,6.1874159 c -0.02735,0.05205 -0.057446,0.1008119 -0.066876,0.1083612 -0.030123,0.024113 -0.070465,0.029975 -0.098328,0.01429 z M 2.2103491,5.6285567 C 2.3115507,5.554268 2.4492233,5.3977313 2.6667356,5.1096357 3.0806744,4.5613729 3.3249848,4.3365987 3.8664012,4.0059003 4.316977,3.7306876 4.7519244,3.2326969 5.0100367,2.6965008 5.1251375,2.4573933 5.1606379,2.3271439 5.1687117,2.1143276 5.1788308,1.8476048 5.1471037,1.7469832 4.9226082,1.333813 4.8680236,1.2333535 4.7999309,1.0948411 4.7712911,1.0260078 4.7426511,0.95717455 4.7149648,0.90085635 4.7097659,0.90085635 c -0.0052,0 -0.013444,0.0125773 -0.018323,0.0279485 C 4.6768648,0.97473855 4.5856508,1.1009952 4.1979073,1.6119515 3.5913343,2.4112733 3.6198646,2.3818619 2.6757703,3.1811008 2.0292985,3.7283823 1.8583837,3.8807096 1.6190265,4.1229206 1.2631796,4.4830099 1.1401269,4.6182822 1.1401269,4.6493769 c 0,0.00583 0.044141,0.042542 0.098091,0.08156 0.1519028,0.1098561 0.3327749,0.2694753 0.4757785,0.4198732 0.1218422,0.1281426 0.1912741,0.2148147 0.3494715,0.4362472 0.035307,0.049418 0.067977,0.089853 0.072602,0.089853 0.00463,0 0.03805,-0.021759 0.074279,-0.048354 z M 4.3628745,5.4671965 C 4.558143,5.2084308 4.7526244,5.0114574 5.0489573,4.7723227 5.1352543,4.7026827 5.2080452,4.643673 5.2107147,4.64119 5.2207854,4.6318228 4.9518236,4.3658976 4.836965,4.2716601 4.771112,4.2176302 4.6329631,4.11283 4.5299673,4.0387709 L 4.3427022,3.904118 4.3007352,3.9384899 C 4.2209461,4.0038384 4.0607018,4.1146321 3.8867139,4.2247458 3.7005352,4.3425751 3.5426149,4.4583371 3.4348523,4.5559788 l -0.066241,0.06002 0.1713825,0.2611379 C 3.8170756,5.2993306 3.9756714,5.498745 4.1346269,5.6248136 l 0.065276,0.051771 0.030436,-0.037045 c 0.016741,-0.020375 0.07638,-0.09793 0.1325356,-0.1723431 z M 2.8142277,2.8153366 C 2.8970885,2.7483637 2.965284,2.687259 2.9657734,2.6795484 2.9662626,2.6718378 2.8768583,2.5496847 2.7670971,2.4080967 1.804982,1.1670044 1.6071973,0.91438621 1.5976137,0.91438621 c -0.00605,0 -0.011,0.0122912 -0.011,0.0273142 0,0.0504247 -0.065989,0.21682529 -0.1437842,0.36257529 C 1.206067,1.7478487 1.1728322,1.8327511 1.1573456,2.0335775 1.1313188,2.3710856 1.3372894,2.8127525 1.7820393,3.373121 L 1.924065,3.5520681 2.2938183,3.244587 C 2.4971827,3.0754723 2.7313668,2.8823098 2.8142277,2.8153366 Z M 3.216169,2.466942 c 0.080068,-0.07722 0.684057,-0.7797433 0.684057,-0.7956531 0,-0.050862 -0.9534711,-0.074839 -1.2789029,-0.032159 -0.088859,0.011654 -0.1634242,0.02305 -0.1656994,0.025325 -0.00623,0.00623 0.6650495,0.8719146 0.6767636,0.8727756 0.00557,4.095e-4 0.043273,-0.03122 0.083782,-0.070289 z M 4.2302653,1.2486936 C 4.3098966,1.1386256 4.3781398,1.0405171 4.3819165,1.0306749 4.3976827,0.98958915 4.0310378,0.88640549 3.7514799,0.85325315 3.5509386,0.82947126 2.7971831,0.82543131 2.6327771,0.84725719 2.3898456,0.87950783 2.0572199,0.96396604 1.9609437,1.0178448 c -0.020105,0.011252 0.00213,0.043712 0.1613521,0.2355413 0.1597179,0.192427 0.1894782,0.2220866 0.220244,0.2194991 0.019565,-0.00165 0.120811,-0.013822 0.2249913,-0.027061 0.1481341,-0.018822 0.2882062,-0.024068 0.6426701,-0.024068 0.4143083,0 0.4689451,0.00272 0.6359051,0.031688 0.1004591,0.017428 0.1853596,0.034341 0.1886669,0.037583 0.0098,0.00961 0.04295,-0.031487 0.1954921,-0.2423336 z M 1.9936202,0.79159354 c 0.3384836,-0.120822 0.5193713,-0.14627919 1.1151067,-0.15693437 0.4960119,-0.008872 0.6175011,-0.00126 0.9065032,0.0567921 0.1509366,0.0303189 0.3243915,0.082634 0.4418093,0.13325216 l 0.049442,0.0213144 0.034891,-0.0871568 c 0.019191,-0.0479364 0.038827,-0.11176351 0.043635,-0.14183831 0.00807,-0.0504153 0.00488,-0.058329 -0.040828,-0.10143384 C 4.4171309,0.39576611 4.082543,0.29646898 3.6286064,0.24386997 3.383179,0.21543155 2.8101209,0.22315726 2.5878259,0.2579013 2.2458137,0.31135678 2.0474746,0.36474779 1.8738607,0.45009385 1.7457098,0.51309103 1.7032835,0.56212207 1.7117706,0.6374181 c 0.0061,0.0541857 0.092035,0.20931866 0.1159402,0.20931866 0.00629,0 0.080944,-0.0248144 0.1659094,-0.0551432 z"/>
</svg>