<svg xmlns="http://www.w3.org/2000/svg" viewBox="0 0 6.3499997 6.3499997" width="48" height="48">
  <path fill="currentColor" d="M 0.45941383,6.18714 C 0.37129455,6.102068 0.33911414,6.0588866 0.33911414,6.0257155 c 0,-0.035147 0.0584646,-0.103652 0.2611742,-0.3060238 L 0.86146253,5.458953 0.60028834,5.1958098 C 0.40275787,4.9967902 0.33911414,4.9219935 0.33911414,4.8888672 c 0,-0.052021 0.22122564,-0.2760786 0.27258806,-0.2760786 0.0179955,0 0.14822403,0.1160538 0.29770513,0.2653015 L 1.1751238,5.1433917 1.4424255,4.8780901 C 1.5942342,4.7274173 1.723693,4.6127886 1.7420502,4.6127886 c 0.017778,0 0.089457,0.057133 0.1592867,0.1269637 0.097074,0.097074 0.1247625,0.1353808 0.1176136,0.1627182 -0.00515,0.019665 -0.1224862,0.148689 -0.2607638,0.2867198 C 1.6199091,5.3272211 1.506773,5.4477829 1.506773,5.4571054 c 0,0.00932 0.1178445,0.1356828 0.2618767,0.2808008 0.2071916,0.2087537 0.2594597,0.2707678 0.2503022,0.2969748 -0.01873,0.053603 -0.2381316,0.2683986 -0.2741533,0.2683986 -0.019213,0 -0.145313,-0.1108174 -0.3013298,-0.2648105 L 1.1751782,5.7736588 0.90837137,6.0384691 C 0.76162761,6.1841149 0.62764806,6.3032796 0.61063904,6.3032796 c -0.0170091,0 -0.0850603,-0.052263 -0.15122521,-0.1161396 z M 1.1635215,5.5789049 c 0.045107,-0.010932 0.069371,0.0085 0.3149045,0.2521968 0.2550573,0.2531488 0.2672402,0.2627058 0.2953252,0.2316722 0.016111,-0.017802 0.029294,-0.039277 0.029294,-0.047721 0,-0.00844 -0.117344,-0.1335808 -0.2607643,-0.2780823 C 1.336015,5.5291501 1.2834704,5.4667674 1.2908667,5.4384839 1.2960095,5.4188178 1.4133534,5.2897932 1.5516309,5.1517623 1.6899084,5.0137314 1.8030446,4.8918528 1.8030446,4.880921 c 0,-0.010932 -0.012259,-0.03005 -0.027242,-0.042486 C 1.7522896,4.818922 1.7122966,4.852033 1.4836833,5.08029 1.2848679,5.278795 1.2080419,5.3447533 1.1756457,5.3447533 c -0.03238,0 -0.1087517,-0.065489 -0.30574796,-0.2621774 l -0.26258733,-0.262177 -0.0329165,0.036372 c -0.0327754,0.036217 -0.0318093,0.037481 0.22534909,0.2950691 0.2062787,0.2066232 0.2582655,0.2682576 0.2582655,0.3061938 0,0.037936 -0.051987,0.099571 -0.2582655,0.3061938 C 0.54259306,6.0218072 0.54161965,6.0230818 0.57439077,6.0592934 L 0.60730405,6.0956624 0.8609764,5.8432059 C 1.0202142,5.6847311 1.1328426,5.5863398 1.1635215,5.5789049 Z m 1.2872949,0.595524 C 2.3820997,6.1035611 2.325877,6.0320457 2.325877,6.015506 c 0,-0.01654 0.1191647,-0.1508031 0.2648103,-0.2983629 L 2.8554978,5.4488525 2.5906873,5.1820457 C 2.4450417,5.035302 2.325877,4.9012737 2.325877,4.8842051 c 0,-0.046602 0.2320329,-0.2714165 0.2801303,-0.2714165 0.02793,0 0.119144,0.078802 0.3067885,0.2650425 L 3.1798365,5.1428735 3.4485222,4.8761983 c 0.232372,-0.2306332 0.2741806,-0.2650898 0.3093425,-0.2549435 0.062006,0.017892 0.2585034,0.2243123 0.2585034,0.2715569 0,0.02804 -0.077325,0.1177624 -0.2608383,0.3026598 L 3.4946913,5.4582763 3.7555298,5.7207212 c 0.1905634,0.1917369 0.2608383,0.2736946 0.2608383,0.3042006 0,0.050156 -0.224316,0.2783578 -0.2736188,0.2783578 -0.017773,0 -0.1469388,-0.1153287 -0.2927829,-0.2614162 C 3.3064273,5.8980846 3.1809476,5.7804473 3.1711226,5.7804473 c -0.00982,0 -0.1353048,0.1176373 -0.2788439,0.2614161 -0.1435392,0.1437789 -0.2734774,0.2614162 -0.2887516,0.2614162 -0.015274,0 -0.083994,-0.057983 -0.1527107,-0.1288507 z M 2.8754152,5.8327305 C 3.0308671,5.6784418 3.1524827,5.5713144 3.1721857,5.5713144 c 0.019795,0 0.1415929,0.1080403 0.2992244,0.2654257 L 3.7372508,6.1021657 3.7759922,6.0634244 3.8147335,6.0246831 3.5495682,5.7575187 C 3.3989944,5.6058098 3.2844029,5.4763871 3.2844029,5.458034 c 0,-0.018346 0.1140504,-0.1472305 0.2637719,-0.2980808 C 3.8121082,4.8940301 3.8365172,4.8561795 3.7624105,4.8277421 3.7421783,4.8199783 3.6596222,4.8914098 3.4698961,5.0808396 3.3245163,5.2259924 3.1923814,5.3447538 3.1762629,5.3447538 3.1601444,5.3447538 3.0315748,5.2271165 2.8905526,5.0833376 2.7495304,4.9395588 2.6261843,4.8219215 2.6164501,4.8219215 c -0.00973,0 -0.032265,0.013182 -0.050067,0.029294 -0.031034,0.028085 -0.021569,0.040175 0.2295454,0.2931822 0.1924837,0.1939348 0.2619142,0.2750483 0.2619142,0.3059862 0,0.031028 -0.069632,0.111838 -0.2648042,0.3073156 -0.2617946,0.262204 -0.264438,0.2656232 -0.2325735,0.300833 0.017727,0.019588 0.036581,0.035615 0.041897,0.035615 0.00532,0 0.1281907,-0.1176373 0.2730532,-0.261417 z M 4.449057,6.1842902 C 4.3678351,6.1030683 4.3300676,6.0519657 4.3300676,6.0232879 c 0,-0.030924 0.070093,-0.1122156 0.2655621,-0.3079902 L 4.861192,5.4493202 4.5956297,5.1833427 C 4.4240061,5.0114508 4.3300676,4.9045782 4.3300676,4.8812165 c 0,-0.044707 0.2271886,-0.2684279 0.272588,-0.2684279 0.017996,0 0.1482241,0.1160538 0.2977051,0.2653015 L 5.1660772,5.1433917 5.4333788,4.8780901 c 0.147016,-0.1459158 0.2812183,-0.2653015 0.2982273,-0.2653015 0.017009,0 0.08506,0.052263 0.1512252,0.1161395 0.08813,0.085082 0.1202997,0.1282516 0.1202997,0.161432 0,0.035091 -0.056915,0.1021074 -0.2527023,0.297544 -0.1389863,0.1387382 -0.2527023,0.2598788 -0.2527023,0.2692013 0,0.00932 0.1173439,0.1351785 0.2607643,0.27968 0.2121881,0.2137878 0.2589421,0.2696975 0.2509833,0.300132 -0.01171,0.04478 -0.2368505,0.2663622 -0.2706395,0.2663622 -0.013033,0 -0.1411383,-0.1176373 -0.2846774,-0.2614162 C 5.3106179,5.8980846 5.1855526,5.7804473 5.1762343,5.7804473 c -0.00932,0 -0.1354665,0.1176373 -0.2803293,0.2614161 -0.1488998,0.1477856 -0.2773991,0.2614162 -0.2956229,0.2614162 -0.01773,0 -0.085781,-0.053545 -0.1512251,-0.1189894 z M 5.1665993,5.5713144 c 0.029589,0 0.1155464,0.073955 0.3081985,0.2651653 L 5.7419623,6.1016448 5.7807036,6.0629035 5.8194449,6.0241622 5.5540192,5.7583215 C 5.3583613,5.5623578 5.2885935,5.4814154 5.2885935,5.4503834 c 0,-0.030938 0.069431,-0.1120514 0.2619142,-0.3059862 C 5.8118524,4.8810822 5.8123434,4.8804373 5.7763093,4.8478268 5.7404364,4.8153623 5.7384351,4.816904 5.4749782,5.0799495 5.300334,5.2543211 5.1971731,5.3447538 5.1729033,5.3447538 c -0.024421,0 -0.1255457,-0.089672 -0.2997172,-0.2657731 l -0.2628606,-0.2657731 -0.039822,0.039599 -0.039822,0.039599 0.2613191,0.2599386 c 0.1437251,0.142967 0.2637905,0.2758532 0.2668115,0.2953032 0.00363,0.023345 -0.020672,0.060735 -0.071492,0.1100138 C 4.9449786,5.598719 4.8256019,5.7205253 4.7220386,5.8283423 4.53652,6.0214807 4.5342143,6.0248953 4.5657646,6.059758 4.5974953,6.09482 4.6001946,6.0927537 4.8616762,5.8332286 5.0518228,5.6445048 5.1370318,5.5713144 5.1665993,5.5713144 Z M 0.46002236,3.9019444 C 0.37551579,3.8192601 0.33911414,3.7707874 0.33911414,3.7409422 c 0,-0.031811 0.067691,-0.1104982 0.26540995,-0.3085262 L 0.86993402,3.166591 0.60452409,2.9031412 C 0.42482272,2.724767 0.33911414,2.6274851 0.33911414,2.6018927 c 0,-0.047947 0.22272855,-0.2721383 0.27036301,-0.2721383 0.0208662,0 0.13797683,0.103601 0.30019122,0.2655621 L 1.1756458,2.8608788 1.4416233,2.5953165 c 0.2021374,-0.2018217 0.276517,-0.2655621 0.309888,-0.2655621 0.030512,0 0.073716,0.030577 0.1415927,0.1002093 0.1143861,0.1173459 0.137451,0.1572085 0.1184855,0.2047762 -0.00764,0.01917 -0.1243539,0.1445451 -0.2593567,0.2786104 -0.135003,0.1340652 -0.2454598,0.2518038 -0.2454598,0.2616415 0,0.00983 0.1137161,0.1313998 0.2527022,0.2701381 0.1957865,0.1954371 0.2527024,0.2624526 0.2527024,0.2975439 0,0.033181 -0.032171,0.07635 -0.1202998,0.161432 -0.066165,0.063877 -0.1309634,0.1161395 -0.1439967,0.1161395 -0.013033,0 -0.1411383,-0.1176372 -0.2846775,-0.2614161 C 1.3196644,3.6150504 1.1945992,3.4974131 1.1852809,3.4974131 c -0.00932,0 -0.1354665,0.1176373 -0.28032938,0.2614161 -0.14486284,0.1437789 -0.27702962,0.2614161 -0.29370397,0.2614161 -0.0166744,0 -0.0847256,-0.053235 -0.15122519,-0.1183009 z M 1.1771313,3.2882802 c 0.031581,0 0.1095156,0.067107 0.3029522,0.2608673 0.2450592,0.2454685 0.2622779,0.2591971 0.2916968,0.2325734 0.017196,-0.015562 0.031264,-0.036983 0.031264,-0.047602 0,-0.01062 -0.113716,-0.1328222 -0.2527023,-0.2715605 C 1.3629785,3.2755281 1.29764,3.1993104 1.29764,3.167779 1.29764,3.136287 1.365604,3.0567755 1.5595543,2.861363 1.8202289,2.5987232 1.8212989,2.5973206 1.7856273,2.5650383 1.7501176,2.5329025 1.7473214,2.5350489 1.4832331,2.797161 1.3318981,2.9473637 1.2027096,3.0617195 1.1843597,3.0617195 1.1660141,3.0617195 1.0371291,2.9476691 0.88627883,2.7979476 0.62035965,2.5340182 0.58250488,2.5096059 0.55406958,2.583707 c -0.00774,0.020171 0.0610684,0.1007874 0.24206085,0.2835961 0.13908154,0.1404775 0.25804927,0.2703193 0.26437277,0.2885375 0.00909,0.026173 -0.043455,0.08849 -0.25037947,0.2969749 -0.14403216,0.145118 -0.26187666,0.2707594 -0.26187666,0.2792031 0,0.00844 0.013182,0.029918 0.0292935,0.047721 0.0280855,0.031034 0.0401748,0.021569 0.29318227,-0.2295453 C 1.0661098,3.3562694 1.1456491,3.2882802 1.1771313,3.2882802 Z M 2.4534931,3.8926293 C 2.3833042,3.8224405 2.325877,3.7504679 2.325877,3.7326902 c 0,-0.018357 0.1146273,-0.1478145 0.2652981,-0.2996211 L 2.8564732,3.1657709 2.6016123,2.9089692 C 2.4614388,2.7677284 2.3413277,2.6338968 2.3346988,2.6115658 2.3245798,2.5774698 2.3419588,2.5516418 2.443251,2.4503592 2.526397,2.3672132 2.5770358,2.3297544 2.606291,2.3297544 c 0.031475,0 0.1097798,0.067457 0.3031739,0.2611741 L 3.1702036,2.8521027 3.4333468,2.5909285 C 3.6323665,2.3933981 3.7071632,2.3297544 3.7402895,2.3297544 c 0.052021,0 0.2760786,0.2212255 0.2760786,0.272588 0,0.017996 -0.1160538,0.148224 -0.2653016,0.2977051 L 3.485765,3.165764 3.7510665,3.4330655 c 0.1653135,0.1665598 0.2653016,0.2804926 0.2653016,0.3023014 0,0.03817 -0.2425491,0.2848784 -0.2800758,0.2848784 -0.012306,0 -0.1408987,-0.1176372 -0.2857615,-0.2614161 C 3.3056679,3.6150504 3.1799342,3.4974131 3.1711226,3.4974131 c -0.00881,0 -0.1345454,0.1176373 -0.2794082,0.2614161 -0.1448629,0.1437789 -0.2740112,0.2614161 -0.2869962,0.2614161 -0.012985,0 -0.081036,-0.057427 -0.1512251,-0.127616 z M 3.1802588,3.2882802 c 0.032951,0 0.1071096,0.063633 0.3040152,0.2608673 0.2450594,0.2454685 0.262278,0.2591971 0.2916969,0.2325734 0.017196,-0.015562 0.031264,-0.036565 0.031264,-0.046674 0,-0.010109 -0.1176373,-0.1369044 -0.2614161,-0.2817673 C 3.4020402,3.3084166 3.2844029,3.1792695 3.2844029,3.166286 c 0,-0.012984 0.1186973,-0.1431987 0.2637719,-0.289367 C 3.7352031,2.6884807 3.8088412,2.6030652 3.8012724,2.5833414 3.7729924,2.5096448 3.7348317,2.5343069 3.4692035,2.7979476 3.3230352,2.9430221 3.1921516,3.0617195 3.1783509,3.0617195 c -0.0138,0 -0.1425331,-0.1176373 -0.2860722,-0.2614161 C 2.7487395,2.6565245 2.6239753,2.5388873 2.6150249,2.5388873 c -0.00895,0 -0.03084,0.013182 -0.048642,0.029294 -0.031034,0.028085 -0.021569,0.040175 0.2295454,0.2931823 0.1939249,0.1953869 0.2619142,0.2749263 0.2619142,0.3064084 0,0.031583 -0.067131,0.1095389 -0.2609772,0.3030619 L 2.535888,3.731376 2.573882,3.771819 2.611876,3.812262 2.8742761,3.5502704 C 3.0724932,3.3523626 3.1473362,3.2882802 3.1802588,3.2882802 Z M 4.4559297,3.8934311 C 4.3854325,3.8224602 4.3300676,3.7516613 4.3300676,3.7324822 c 0,-0.020901 0.1034559,-0.137859 0.2655621,-0.3002187 L 4.861192,3.166286 4.5956297,2.9003085 C 4.4290183,2.7334365 4.3300676,2.6212457 4.3300676,2.5992126 c 0,-0.04537 0.224841,-0.2694582 0.270363,-0.2694582 0.020866,0 0.1379768,0.103601 0.3001912,0.2655621 L 5.1665993,2.8608788 5.4325768,2.5953165 c 0.2539214,-0.2535249 0.302369,-0.2880873 0.353554,-0.2522245 0.010048,0.00704 0.066376,0.06497 0.1251673,0.1287291 0.076033,0.082457 0.1043469,0.1256609 0.098074,0.1496475 -0.00485,0.018547 -0.1219548,0.1466567 -0.2602323,0.2846875 -0.1382775,0.1380308 -0.2514137,0.2585927 -0.2514137,0.2679151 0,0.00932 0.1173439,0.1351785 0.2607643,0.27968 0.2121885,0.2137877 0.2589425,0.2696974 0.2509837,0.300132 -0.01171,0.04478 -0.2368505,0.2663621 -0.2706395,0.2663621 -0.013034,0 -0.1411383,-0.1176372 -0.2846774,-0.2614161 C 5.3106179,3.6150504 5.1853311,3.4974131 5.175742,3.4974131 c -0.00959,0 -0.1312456,0.1129405 -0.2703479,0.2509789 C 4.7662918,3.8864304 4.6365758,4.0040438 4.6171363,4.009755 4.5897096,4.0178127 4.5535964,3.9917542 4.4559297,3.8934311 Z M 5.1676625,3.2882802 c 0.031007,0 0.1112206,0.069016 0.3044975,0.2619904 L 5.7345601,3.812261 5.7725541,3.7718182 5.8105481,3.7313754 5.5495708,3.4708333 C 5.3557246,3.2773103 5.2885935,3.1993539 5.2885935,3.1677714 c 0,-0.031482 0.067989,-0.1110215 0.2619142,-0.3064084 0.2511143,-0.2530075 0.2605796,-0.2650968 0.2295454,-0.2931823 -0.017803,-0.016111 -0.039692,-0.029294 -0.048642,-0.029294 -0.00895,0 -0.1337145,0.1176372 -0.2772536,0.2614161 -0.1435396,0.1437794 -0.2727506,0.2614167 -0.2871359,0.2614167 -0.014385,0 -0.1451023,-0.1187613 -0.290482,-0.2639141 C 4.6868136,2.6083756 4.6042574,2.536944 4.5840252,2.5447078 c -0.074107,0.028437 -0.049698,0.066288 0.2142356,0.3322112 0.1450746,0.1461683 0.263772,0.2763834 0.263772,0.289367 0,0.012983 -0.1176372,0.1421306 -0.2614162,0.2869934 -0.1437788,0.1448629 -0.2614161,0.2702955 -0.2614161,0.2787392 0,0.00844 0.013182,0.029918 0.029294,0.047721 0.028085,0.031034 0.040175,0.021569 0.2931822,-0.2295453 C 5.0556111,3.3577107 5.1367246,3.2882802 5.1676625,3.2882802 Z M 0.46703407,1.6113693 C 0.38926673,1.5359624 0.33911414,1.4731933 0.33911414,1.4512694 c 0,-0.023251 0.0943462,-0.1305564 0.26556223,-0.3020402 L 0.87023859,0.88325174 0.60467637,0.61727429 C 0.43806484,0.45040225 0.33911414,0.33821138 0.33911414,0.31617833 c 0,-0.0453697 0.22484096,-0.2694582 0.27036301,-0.2694582 0.0208662,0 0.13797683,0.10360108 0.30019122,0.26556218 L 1.1756458,0.57784451 1.4416233,0.31228232 c 0.2020023,-0.20168684 0.2765291,-0.26556218 0.309846,-0.26556218 0.063412,0 0.2650653,0.20571521 0.2650653,0.2704038 0,0.0375896 -0.052839,0.1001509 -0.2590161,0.30667174 L 1.4985025,0.88324421 1.7447499,1.1315934 c 0.1354362,0.1365919 0.2540076,0.264034 0.2634921,0.2832045 0.00948,0.01917 0.011225,0.05054 0.00387,0.069711 -0.017071,0.044483 -0.2337173,0.2527022 -0.26293,0.2527022 -0.012115,0 -0.1405497,-0.1176373 -0.2854126,-0.2614161 C 1.3189051,1.3320161 1.1927535,1.2143789 1.183431,1.2143789 c -0.00932,0 -0.1298841,0.1131362 -0.26791503,0.2514137 C 0.77748513,1.6040701 0.64889153,1.7213013 0.62975241,1.7263063 0.60383812,1.733083 0.56229569,1.7037393 0.46703407,1.6113693 Z M 1.1771313,1.0052459 c 0.031581,0 0.1095156,0.067107 0.3029522,0.2608673 0.2450592,0.2454686 0.2622779,0.2591972 0.2916968,0.2325735 0.017196,-0.015562 0.031264,-0.036983 0.031264,-0.047602 0,-0.01062 -0.113716,-0.1328221 -0.2527023,-0.2715604 C 1.3629785,0.9924938 1.29764,0.91627615 1.29764,0.88474473 c 0,-0.0314919 0.067964,-0.11100346 0.2619143,-0.306416 0.2511143,-0.25300741 0.2605795,-0.2650967 0.2295453,-0.29318224 -0.017803,-0.0161114 -0.039695,-0.0292935 -0.04865,-0.0292935 -0.00895,0 -0.129794,0.11371602 -0.2685323,0.25270226 -0.1917,0.19204266 -0.2628183,0.25270226 -0.2962717,0.25270226 -0.033453,0 -0.1045716,-0.0606596 -0.2962716,-0.25270226 C 0.74063592,0.36956905 0.61843371,0.25585303 0.60781375,0.25585303 c -0.01062,0 -0.0320412,0.0140689 -0.0476029,0.0312643 -0.0266237,0.0294188 -0.012895,0.0466375 0.23257346,0.29169677 0.1985916,0.1982605 0.26086729,0.27093936 0.26086729,0.30444509 0,0.0334438 -0.0606823,0.10458684 -0.25270225,0.29626411 -0.13898626,0.1387384 -0.25270229,0.2595779 -0.25270229,0.2685324 0,0.00895 0.013182,0.030847 0.0292935,0.04865 0.0280855,0.031034 0.0401748,0.021569 0.29318227,-0.2295454 C 1.0661098,1.0732352 1.1456491,1.0052459 1.1771313,1.0052459 Z M 2.4535348,1.61086 C 2.3948995,1.5509521 2.3414544,1.4836411 2.3347683,1.4612799 2.324204,1.4259498 2.357549,1.3854222 2.5892867,1.1519375 L 2.855962,0.88325174 2.5909195,0.61621111 C 2.4409227,0.46508351 2.325877,0.33517806 2.325877,0.31693472 c 0,-0.049483 0.2290633,-0.27021459 0.280414,-0.27021459 0.031475,0 0.1097798,0.06745721 0.3031739,0.26117416 L 3.1702036,0.56906846 3.4333468,0.30789429 c 0.1956439,-0.19417994 0.274114,-0.26117416 0.3059124,-0.26117416 0.052708,0 0.2771089,0.2189383 0.2771089,0.27036298 0,0.0208648 -0.1035107,0.13788639 -0.2653016,0.29993014 L 3.485765,0.88272965 3.7510665,1.1500314 c 0.1604113,0.1616205 0.2653016,0.2807658 0.2653016,0.3013569 0,0.051321 -0.2260617,0.2683951 -0.2795067,0.2683951 -0.032601,0 -0.1059424,-0.062696 -0.2956088,-0.2527022 -0.1387383,-0.1389863 -0.2602968,-0.2527023 -0.27013,-0.2527023 -0.00983,0 -0.1313917,0.113716 -0.2701301,0.2527023 -0.1925351,0.1928791 -0.2627383,0.2527022 -0.2965496,0.2527022 -0.031349,0 -0.075463,-0.03184 -0.1509081,-0.1089234 z m 0.726724,-0.6056141 c 0.032951,0 0.1071096,0.063633 0.3040152,0.2608673 0.2450594,0.2454686 0.262278,0.2591972 0.2916969,0.2325735 0.017196,-0.015562 0.031264,-0.036565 0.031264,-0.046674 0,-0.010109 -0.1176373,-0.1369044 -0.2614161,-0.2817672 C 3.4020402,1.0253824 3.2844029,0.89575688 3.2844029,0.88218857 c 0,-0.0135683 0.1187614,-0.14361672 0.2639142,-0.28899647 C 3.8129459,0.32814952 3.8373142,0.29041687 3.7624155,0.26167554 3.7422091,0.2539216 3.6618868,0.32308635 3.4786083,0.50605921 3.2858152,0.69853084 3.2122711,0.76125755 3.1794,0.76125755 c -0.032891,0 -0.1054673,-0.0619941 -0.2958352,-0.25270226 C 2.7448265,0.36956905 2.623987,0.25585303 2.6150324,0.25585303 c -0.00895,0 -0.030847,0.0131821 -0.04865,0.0292935 -0.031034,0.0280855 -0.021569,0.0401748 0.2295454,0.29318223 0.1939249,0.19538695 0.2619142,0.2749263 0.2619142,0.30640848 0,0.0315824 -0.067131,0.10953887 -0.2609772,0.30306185 l -0.2609773,0.2605422 0.037994,0.040442 0.037994,0.040443 0.2624008,-0.2619905 C 3.0724932,1.0693284 3.1473362,1.0052459 3.1802588,1.0052459 Z M 4.4472375,1.6017088 C 4.3825151,1.5364867 4.3300676,1.4683194 4.3300676,1.4494204 c 0,-0.020867 0.1036011,-0.1379768 0.2655621,-0.3001912 L 4.861192,0.88325174 4.5956297,0.61727429 C 4.4290183,0.45040225 4.3300676,0.33821138 4.3300676,0.31617833 c 0,-0.0517349 0.2251627,-0.2694582 0.2786655,-0.2694582 0.031991,0 0.1060538,0.06579362 0.2991756,0.26577306 L 5.1645681,0.57826625 5.4315612,0.31249319 c 0.1718874,-0.171102 0.279839,-0.26577306 0.3030558,-0.26577306 0.021971,0 0.085241,0.05071827 0.1619205,0.12979769 0.124936,0.1288469 0.1256685,0.13015543 0.099998,0.17863435 C 5.9823125,0.38201227 5.864262,0.50975341 5.7342009,0.63902122 5.60414,0.76828903 5.4977264,0.88168858 5.4977264,0.89102022 c 0,0.009331 0.1178445,0.13569958 0.2618767,0.28081758 C 5.9668306,1.3806276 6.0190621,1.4426011 6.009895,1.4688127 6.003525,1.4870307 5.950606,1.5509517 5.8923006,1.61086 5.8171266,1.6881 5.7734059,1.7197834 5.7419929,1.7197834 c -0.033811,0 -0.1040147,-0.059823 -0.2965497,-0.2527022 C 5.3067045,1.3280949 5.185146,1.2143789 5.1753127,1.2143789 c -0.00983,0 -0.1313917,0.113716 -0.27013,0.2527023 -0.1924274,0.1927712 -0.2627487,0.2527022 -0.2965136,0.2527022 -0.031513,0 -0.078011,-0.034011 -0.1614316,-0.1180746 z M 5.1867532,1.0056336 c 0.022464,0.011433 0.1549115,0.133917 0.2943283,0.2721868 l 0.253485,0.2513995 0.037991,-0.040439 0.037991,-0.040439 L 5.5495708,1.1877991 C 5.3557246,0.99427608 5.2885935,0.91631959 5.2885935,0.88473721 c 0,-0.0314822 0.067989,-0.11102153 0.2619142,-0.30640848 0.2511143,-0.25300741 0.2605796,-0.2650967 0.2295454,-0.29318224 -0.017803,-0.0161114 -0.039278,-0.0292935 -0.047721,-0.0292935 -0.00844,0 -0.1338763,0.11763726 -0.2787392,0.26141613 -0.1448628,0.14377887 -0.2744883,0.26141613 -0.2880566,0.26141613 -0.013568,0 -0.1443932,-0.11953656 -0.2907219,-0.2656368 -0.2273879,-0.22703278 -0.2704735,-0.2628524 -0.296476,-0.24647734 -0.016733,0.0105376 -0.032601,0.0301809 -0.035262,0.0436515 -0.00266,0.0134706 0.1130158,0.14145756 0.2570592,0.28441537 0.1440433,0.14295782 0.261897,0.27235858 0.261897,0.28755724 0,0.0151986 -0.1176372,0.14507508 -0.2614162,0.28861428 -0.1437785,0.1435392 -0.2614158,0.2683033 -0.2614158,0.2772537 0,0.00895 0.013187,0.030844 0.029303,0.048653 0.028096,0.031045 0.040594,0.021169 0.3033548,-0.2397451 C 5.1300152,1.0006296 5.148279,0.98605217 5.1867532,1.0056336 Z"/>
</svg>