<svg xmlns="http://www.w3.org/2000/svg" viewBox="0 0 6.3499997 6.3499997" width="48" height="48">
  <path fill="currentColor" d="M 3.4096141,5.8507543 C 3.2318905,5.8329553 3.0463047,5.7731389 2.9115468,5.6902215 L 2.8765458,5.6686855 2.736334,5.6758455 C 2.0917375,5.7087682 1.4828071,5.5138909 0.97961312,5.1136394 0.65268407,4.8535928 0.37777965,4.4950189 0.21743499,4.1194856 0.10777854,3.8626661 0.04306631,3.6152447 0.01480821,3.3447603 0.00183475,3.2205792 0.00363985,2.9258548 0.0181227,2.8035963 0.07708894,2.3058266 0.25356964,1.875308 0.56198144,1.4768718 0.63834109,1.3782231 0.86370945,1.1494092 0.95866483,1.0741236 1.1190292,0.94697871 1.2524921,0.86089731 1.4230185,0.77462286 1.689776,0.63966231 1.9716126,0.55270649 2.272295,0.51259327 c 0.128139,-0.0170946 0.4419449,-0.0211169 0.5722627,-0.007334 0.5269062,0.0557238 0.9719265,0.23814921 1.3855309,0.56796563 0.093779,0.074781 0.2804029,0.2591589 0.3616685,0.3573151 0.2894198,0.3495738 0.4841387,0.7709523 0.559653,1.2111088 0.029624,0.1726768 0.035249,0.2438281 0.03516,0.4447503 -8.36e-5,0.1868934 -0.00582,0.2691405 -0.028492,0.4084915 C 5.0495585,4.1618992 4.6892378,4.7565746 4.1462956,5.1647411 3.8908419,5.356783 3.5592984,5.5178284 3.2638338,5.593392 3.2465528,5.597822 3.2359308,5.60383 3.2393938,5.607236 3.2534858,5.6211 3.3897672,5.64295 3.4864243,5.646842 3.7054766,5.655662 3.9532947,5.4869917 4.173777,5.3777869 4.7507012,5.0920365 5.1825468,4.3157211 5.8237387,4.3737549 6.0548246,4.3946699 6.3325196,4.5259777 6.3437524,4.8364958 6.3488024,4.9760414 6.2398018,5.250127 5.9778984,5.3219158 5.9043344,5.3420798 5.8759149,5.3436568 5.84783,5.3291358 5.7615738,5.2845275 5.7805938,5.1614927 5.8775541,5.136857 6.532279,4.9705046 5.8836374,4.4905096 5.5657103,4.6316225 5.157463,4.8128244 4.8752933,5.2068627 4.4844534,5.4230671 4.1470373,5.6097187 3.708718,5.8807094 3.4096141,5.8507543 Z M 2.6484932,5.4719931 c 0,-0.00138 -0.038492,-0.033885 -0.085539,-0.072235 C 2.2248424,5.1241522 1.9082891,4.7908956 1.7095026,4.5012734 c -0.015258,-0.022228 -0.028743,-0.037409 -0.029968,-0.033734 -0.00314,0.00942 0.028767,0.1480057 0.05411,0.2350023 0.055929,0.1919944 0.1464535,0.3798652 0.2600584,0.5397148 0.062965,0.088595 0.1501254,0.1860896 0.1716747,0.192028 0.028029,0.00772 0.1663397,0.026233 0.243864,0.032634 0.071061,0.00586 0.2392511,0.00943 0.2392511,0.00508 z m 0.3895507,-0.039846 c 0.024148,-0.00465 0.043,-0.010728 0.041896,-0.013518 -0.0011,-0.00279 -0.034327,-0.030751 -0.073829,-0.062136 C 2.6673715,5.0873632 2.3856161,4.7645876 2.1870727,4.4182126 1.9418835,3.9904601 1.7986691,3.5018937 1.7612579,2.9655746 1.7488476,2.7876613 1.7563175,2.3785548 1.775116,2.2066127 1.8129986,1.8601144 1.8846583,1.5064289 1.9817256,1.1868633 2.0186262,1.0653794 2.0970639,0.83396179 2.1174947,0.78629839 c 0.00804,-0.0187654 0.012875,-0.0358685 0.010738,-0.0380068 -0.00526,-0.00526 -0.14974,0.0302279 -0.2443513,0.060017 -0.106205,0.0334398 -0.2306246,0.0834931 -0.3341531,0.13442852 l -0.0874,0.043 -0.022044,0.060525 c -0.03296,0.090498 -0.09307,0.3042365 -0.1210986,0.4306102 -0.1731426,0.7806411 -0.1061889,1.5727844 0.1909483,2.2591374 0.2523044,0.5827949 0.6651037,1.097521 1.2465929,1.5543965 0.1331415,0.1046092 0.2091631,0.1568216 0.2234484,0.153467 0.00767,-0.0018 0.033722,-0.00708 0.05787,-0.011724 z m 0.378553,-0.1034132 c 0.1102736,-0.042171 0.1330695,-0.052013 0.1311564,-0.05662 -0.00108,-0.00262 -0.028685,-0.027576 -0.061329,-0.055469 C 3.1598766,4.9376431 2.918804,4.6296281 2.7454995,4.2699762 2.5720656,3.9100559 2.4749411,3.5201855 2.4454279,3.0654499 2.4364379,2.9269142 2.4403679,2.6114362 2.4527779,2.4754066 2.5021479,1.9343451 2.637104,1.3769392 2.8438551,0.86015409 c 0.035834,-0.0895702 0.052292,-0.13889732 0.04736,-0.14194592 -0.02163,-0.0133682 -0.4549692,-0.0225147 -0.5024226,-0.0106047 -0.015554,0.003904 -0.02346,0.0185665 -0.06076,0.11267808 C 2.2460151,1.027229 2.166805,1.2763678 2.1081808,1.5117856 c -0.1995041,0.8011495 -0.1994938,1.5903203 2.89e-5,2.217745 0.2014014,0.633333 0.5799609,1.1457915 1.1512751,1.5584897 0.046086,0.033292 0.088506,0.060577 0.094267,0.060635 0.00576,5.85e-5 0.034041,-0.0089 0.062845,-0.019921 z m -1.6200006,0.00194 c 0,-0.0023 -0.016699,-0.031362 -0.037108,-0.064591 C 1.6382146,5.0686339 1.5612113,4.883199 1.5032883,4.6491152 1.4606557,4.4768244 1.4334927,4.2680177 1.4334927,4.1125858 c 0,-0.059014 -0.00116,-0.063438 -0.033992,-0.1299128 -0.052338,-0.1059554 -0.107668,-0.2340359 -0.1450431,-0.3357497 -0.018667,-0.0508 -0.036208,-0.092435 -0.038981,-0.092522 -0.011626,-3.655e-4 -0.055779,0.1872677 -0.073083,0.3105744 -0.015584,0.1110458 -0.015759,0.3534308 -3.325e-4,0.4611001 0.04124,0.2878483 0.1426006,0.5500562 0.3114287,0.8056295 l 0.052622,0.07966 0.066686,0.031594 c 0.066151,0.03134 0.2085053,0.090989 0.2185609,0.091579 0.00287,1.694e-4 0.00524,-0.00157 0.00524,-0.00386 z m 1.969042,-0.16865 C 3.765585,5.1591439 3.7480303,5.1363619 3.7266283,5.1113989 3.7052264,5.0864354 3.661719,5.0314462 3.6299454,4.9892004 3.2888046,4.5356255 3.0948362,4.0415471 3.0275551,3.4547859 3.0103891,3.3050802 3.0105693,2.8734628 3.0278648,2.7128204 3.0895018,2.1403331 3.2724268,1.522307 3.5290692,1.019464 3.5555422,0.967597 3.5772002,0.9216384 3.5772002,0.91733327 3.5772002,0.89103997 3.1217833,0.74127201 3.108073,0.76305694 3.094514,0.78460194 2.9731189,1.0986852 2.934737,1.211527 2.5809807,2.2515632 2.5505274,3.2412935 2.84901,3.9976486 c 0.1684514,0.4268557 0.4453315,0.8001955 0.8117497,1.0945477 0.088425,0.071034 0.1051055,0.08214 0.1048786,0.069828 z M 3.9984062,5.0171715 c 0.077692,-0.056507 0.072016,-0.042727 0.046548,-0.113004 C 4.005319,4.7947999 3.9366887,4.6680003 3.8642125,4.5702349 3.8152552,4.5041948 3.6708762,4.3651387 3.5981487,4.3139799 3.5232483,4.2612926 3.4235797,4.205908 3.4235797,4.216974 c 0,0.013039 0.062227,0.1482634 0.1122576,0.2439458 0.072018,0.1377336 0.1731084,0.295657 0.2644122,0.4130651 0.056794,0.073031 0.1434685,0.174569 0.1490162,0.174569 0.0033,0 0.02541,-0.014123 0.04914,-0.031382 z M 1.1122857,4.9485088 c 0,-0.00126 -0.012157,-0.030324 -0.027014,-0.06459 C 1.0288446,4.7537856 0.97417765,4.5679208 0.94885292,4.4201055 0.91640409,4.230707 0.91580573,3.9573781 0.94744149,3.7752853 0.97902143,3.5935138 1.0331495,3.4092203 1.0926685,3.2808209 l 0.02802,-0.060448 -0.024829,-0.1245951 c -0.024265,-0.121768 -0.047742,-0.2763163 -0.057378,-0.3777203 -0.00265,-0.027844 -0.00753,-0.050625 -0.010838,-0.050625 -0.010972,0 -0.1184534,0.1408348 -0.18893639,0.247567 -0.17078543,0.2586201 -0.28132609,0.5420302 -0.32410289,0.830953 -0.0158864,0.1073003 -0.0197671,0.3116164 -0.007989,0.4206404 l 0.009953,0.092135 0.0391651,0.06563 c 0.11372805,0.1905782 0.28049142,0.3886964 0.46926828,0.5575 0.067358,0.060231 0.087285,0.075448 0.087284,0.066651 z M 4.3630528,4.585809 C 4.2641329,4.0540675 3.9523525,3.6006911 3.4576936,3.2692782 3.3623088,3.2053721 3.2220873,3.1249595 3.2162365,3.1308102 c -0.0085,0.0085 0.012131,0.3025256 0.029797,0.4249315 0.017081,0.1183362 0.057162,0.3135334 0.074905,0.3647792 0.00852,0.024586 0.012662,0.027304 0.081199,0.053165 0.2440116,0.092073 0.4757807,0.2673449 0.6366741,0.4814737 0.061715,0.082135 0.141668,0.2252522 0.180696,0.3234485 l 0.016211,0.040787 0.071961,-0.07221 0.071961,-0.072209 z m 0.218845,-0.1749188 0.028751,-0.044129 v -0.09231 c 0,-0.5520946 -0.3014079,-1.1514392 -0.8726097,-1.73517 C 3.6053264,2.4036569 3.3494826,2.172022 3.3320724,2.1717278 c -0.00536,-9.04e-5 -0.04379,0.1796519 -0.061946,0.2897133 -0.017158,0.1040089 -0.039631,0.2862206 -0.04581,0.3714184 l -0.00465,0.064177 0.079265,0.039722 c 0.245316,0.1229315 0.5109931,0.3171473 0.6856321,0.5012079 0.2829703,0.2982365 0.4559496,0.6054158 0.5560134,0.9873766 0.00427,0.016323 0.00886,0.029677 0.010184,0.029677 0.00132,0 0.01534,-0.019857 0.031154,-0.044129 z M 4.8318097,3.9260751 4.8585368,3.8579929 4.8575424,3.7218292 C 4.8561103,3.5256903 4.8351114,3.376564 4.7818317,3.1841568 4.6592749,2.741572 4.386472,2.2975965 3.9822006,1.8827898 3.8332878,1.7299963 3.5563478,1.4849226 3.5451989,1.4960717 c -0.00793,0.00794 -0.067798,0.1735276 -0.1120611,0.3099998 l -0.046374,0.1429808 0.015047,0.010546 c 0.022146,0.015512 0.1264591,0.1012389 0.2103028,0.1728311 0.1179329,0.1007016 0.4137193,0.4021885 0.5164451,0.526399 0.2789792,0.337327 0.4759224,0.6752402 0.5869859,1.0071449 0.02129,0.063624 0.067816,0.2479882 0.073616,0.2917142 0.00267,0.020061 0.00733,0.036476 0.010382,0.036476 0.00305,0 0.017568,-0.030637 0.032268,-0.068083 z M 0.34824119,3.5193293 c 0.0991837,-0.4037868 0.3055531,-0.7697087 0.620247,-1.0997848 l 0.046602,-0.048879 0.00672,-0.1745691 c 0.0037,-0.096013 0.011079,-0.2169892 0.016421,-0.2688363 0.00534,-0.051846 0.00864,-0.095412 0.00734,-0.096811 -0.00588,-0.00631 -0.16829985,0.080607 -0.2440064,0.1305848 -0.19788523,0.1306347 -0.36188976,0.3018575 -0.48890129,0.5104191 -0.0357954,0.058778 -0.0418582,0.074454 -0.0562892,0.1455317 -0.0609214,0.3000593 -0.0616977,0.6412071 -0.002125,0.9337675 0.0170606,0.083784 0.0404643,0.1784219 0.0465643,0.1882917 0.002427,0.00393 0.0100416,-0.027406 0.0169211,-0.069628 0.00688,-0.042222 0.0206132,-0.1097606 0.0305184,-0.1500861 z M 4.9845002,3.0287904 C 4.977648,2.8968749 4.9678342,2.7978219 4.9521574,2.7023463 4.8387815,2.0118586 4.4322268,1.4118709 3.8267112,1.0414289 c -0.025992,-0.0159 -0.050401,-0.028911 -0.054245,-0.028911 -0.00746,0 -0.1394035,0.2605946 -0.1394035,0.2753115 0,0.0048 0.025278,0.028316 0.056174,0.052266 0.1799972,0.1395231 0.4124282,0.3570988 0.5689173,0.5325559 0.3404876,0.3817582 0.5640561,0.7585097 0.7016046,1.1823248 0.027381,0.084367 0.030323,0.081255 0.024742,-0.026186 z M 0.59533531,1.8506216 C 0.71270894,1.7612726 0.87330913,1.6718233 1.0161735,1.6162277 c 0.06602,-0.025692 0.068105,-0.027178 0.072206,-0.051483 0.00929,-0.055013 0.05466,-0.2525766 0.073093,-0.3182507 0.010771,-0.038377 0.01833,-0.071028 0.016797,-0.072559 -0.00792,-0.00792 -0.18359455,0.1430002 -0.27478728,0.2360717 -0.0659053,0.067262 -0.15675037,0.1714961 -0.20433747,0.2344509 -0.0675098,0.089311 -0.17143123,0.2478879 -0.16245046,0.2478879 0.002106,0 0.0284936,-0.018776 0.05864,-0.041724 z"/>
</svg>